<?xml version="1.0" standalone="no"?>
<!DOCTYPE svg PUBLIC "-//W3C//DTD SVG 20010904//EN"
 "http://www.w3.org/TR/2001/REC-SVG-20010904/DTD/svg10.dtd">
<svg version="1.0" xmlns="http://www.w3.org/2000/svg"
 width="1479.000000pt" height="1109.000000pt" viewBox="0 0 1479.000000 1109.000000"
 preserveAspectRatio="xMidYMid meet">

<g transform="translate(0.000000,1109.000000) scale(0.100000,-0.100000)"
fill="#000000" stroke="none">
<path d="M6088 9053 c0 -71 -1 -137 -2 -148 -1 -20 8 -20 1589 -26 875 -3
1607 -9 1628 -14 20 -4 40 -11 43 -16 3 -5 14 -9 25 -9 10 0 19 -4 19 -10 0
-5 7 -10 16 -10 9 0 44 -28 78 -62 57 -57 75 -83 117 -172 12 -24 14 -225 14
-1201 0 -846 -3 -1179 -11 -1196 -47 -101 -65 -129 -112 -176 -29 -29 -60 -53
-68 -53 -8 0 -14 -4 -14 -10 0 -5 -9 -10 -20 -10 -11 0 -20 -4 -20 -10 0 -5
-11 -10 -25 -10 -14 0 -25 -4 -25 -10 0 -7 -220 -10 -640 -10 -352 0 -648 -4
-658 -9 -9 -5 -30 -15 -47 -22 -16 -8 -35 -18 -41 -24 -6 -5 -26 -21 -44 -35
-18 -14 -38 -30 -44 -35 -6 -6 -27 -22 -46 -35 -38 -27 -65 -48 -85 -67 -8 -7
-17 -13 -22 -13 -5 0 -15 -9 -23 -20 -8 -11 -20 -20 -27 -20 -7 0 -13 -4 -13
-10 0 -5 -7 -10 -15 -10 -8 0 -15 -4 -15 -10 0 -5 -5 -10 -11 -10 -6 0 -24
-13 -39 -30 -15 -16 -33 -30 -39 -30 -6 0 -11 -4 -11 -10 0 -5 -5 -10 -11 -10
-7 0 -19 -8 -28 -18 -9 -10 -32 -29 -51 -42 -19 -14 -46 -35 -60 -47 -14 -13
-28 -23 -31 -23 -4 0 -21 -13 -39 -30 -18 -16 -35 -30 -39 -30 -3 0 -28 -20
-55 -45 -26 -25 -53 -45 -58 -45 -8 0 -123 -88 -277 -212 -61 -49 -128 -98
-135 -98 -15 0 -3 68 29 170 19 61 35 123 35 137 0 14 6 39 14 56 8 18 17 46
21 62 3 17 11 48 16 70 6 22 13 57 16 78 3 20 9 40 14 43 5 3 9 20 9 39 0 19
5 37 10 40 6 3 10 22 10 41 0 19 5 34 10 34 6 0 10 25 10 55 0 30 -4 55 -10
55 -5 0 -10 7 -10 17 0 23 -59 73 -87 73 -13 0 -23 5 -23 10 0 7 -179 9 -532
8 l-533 -3 -47 -140 c-26 -77 -48 -143 -48 -147 0 -5 212 -8 471 -8 l471 0 -7
-42 c-3 -24 -10 -54 -15 -68 -4 -14 -13 -52 -20 -85 -6 -33 -16 -70 -21 -83
-5 -13 -9 -31 -9 -40 0 -9 -5 -24 -10 -32 -8 -13 -277 -15 -2312 -16 -2302 -1
-2303 -1 -2343 -21 -97 -50 -194 -175 -225 -291 -11 -42 0 -309 30 -717 5 -71
14 -195 20 -275 5 -80 14 -210 20 -290 6 -80 15 -206 21 -280 13 -195 28 -405
40 -560 15 -196 26 -363 38 -545 26 -405 37 -514 55 -543 9 -15 -16 -42 -38
-42 -9 0 -16 -4 -16 -10 0 -5 -7 -10 -15 -10 -26 0 -112 -80 -150 -139 -32
-51 -65 -155 -65 -204 0 -113 117 -360 194 -410 24 -16 249 -17 3138 -15
l3112 3 49 60 c26 33 71 101 99 150 49 85 52 94 56 176 6 129 -26 217 -114
310 -35 37 -76 69 -89 69 -8 0 -15 5 -15 10 0 6 -9 10 -20 10 -11 0 -20 5 -20
10 0 6 -13 10 -28 10 -50 0 -61 17 -51 80 5 30 14 120 20 200 5 80 14 208 20
285 5 77 14 196 19 265 5 69 14 193 20 275 26 355 31 427 36 560 2 77 9 149
14 160 5 11 12 76 15 145 2 69 9 188 15 265 5 77 14 203 19 280 12 166 20 227
32 240 5 5 9 108 9 229 0 206 -5 257 -31 308 -5 10 -9 25 -9 33 0 8 -4 15 -10
15 -5 0 -10 7 -10 15 0 8 -4 15 -10 15 -5 0 -10 5 -10 12 0 19 -112 119 -163
145 -37 18 -63 24 -105 23 -32 -1 -61 -1 -66 -1 -5 1 16 20 45 43 30 23 56 45
59 48 3 3 21 17 40 30 19 13 37 27 40 30 3 3 21 17 40 31 19 15 46 36 59 48
13 11 28 21 32 21 4 0 19 11 33 25 14 14 30 25 36 25 5 0 10 5 10 10 0 6 5 10
11 10 7 0 19 9 29 20 17 19 33 20 641 23 595 4 699 8 699 28 0 5 11 9 24 9 14
0 28 5 31 10 3 6 15 10 26 10 10 0 19 5 19 10 0 6 6 10 13 10 7 0 23 9 35 20
12 11 25 20 31 20 13 0 172 160 194 195 10 17 21 38 24 48 3 9 9 17 14 17 5 0
9 9 9 20 0 11 5 20 10 20 6 0 10 9 10 20 0 11 4 28 9 38 36 68 36 80 36 1307
0 1226 0 1218 -35 1310 -16 43 -55 120 -62 123 -5 2 -8 11 -8 21 0 9 -9 23
-20 31 -11 8 -20 20 -20 27 0 7 -4 13 -10 13 -5 0 -10 5 -10 10 0 14 -66 80
-80 80 -5 0 -10 5 -10 10 0 6 -5 10 -11 10 -7 0 -19 8 -28 18 -44 47 -166 98
-313 131 -32 8 -557 11 -1632 11 l-1586 0 -2 -127z m306 -4181 c-6 -87 -4
-102 16 -150 23 -53 99 -132 126 -132 8 0 14 -4 14 -10 0 -5 12 -10 26 -10 14
0 35 -5 46 -11 30 -16 162 13 188 41 3 3 21 17 40 30 19 14 44 32 54 42 11 10
24 18 29 18 5 0 21 12 35 28 15 15 44 38 64 52 21 14 38 28 38 33 0 4 4 7 10
7 10 0 22 9 83 62 18 15 35 28 39 28 4 0 13 7 21 14 8 8 31 24 51 35 33 19 54
21 201 21 147 0 170 -2 210 -21 28 -13 49 -31 57 -50 7 -16 17 -29 22 -29 8 0
4 -92 -14 -345 -6 -71 -13 -197 -16 -280 -3 -82 -10 -154 -15 -159 -5 -6 -9
-67 -9 -136 0 -69 -4 -130 -9 -136 -6 -5 -12 -70 -15 -144 -3 -74 -8 -193 -11
-265 -3 -71 -10 -139 -15 -150 -5 -11 -12 -78 -14 -150 -3 -71 -10 -193 -15
-270 -6 -77 -15 -207 -21 -290 -6 -82 -15 -208 -20 -280 -5 -71 -13 -195 -19
-275 -5 -80 -14 -158 -20 -175 -6 -16 -14 -38 -17 -47 -3 -10 -19 -23 -35 -30
-16 -7 -29 -16 -29 -20 0 -5 -1188 -8 -2640 -8 -1452 0 -2640 3 -2640 8 0 4
-13 13 -29 20 -46 20 -60 71 -72 265 -5 75 -13 200 -19 277 -5 77 -14 202 -20
278 -5 75 -14 200 -19 277 -15 216 -30 427 -41 575 -5 74 -14 196 -19 270 -6
74 -15 203 -21 285 -18 248 -29 403 -39 540 -26 346 -26 349 0 386 25 37 39
48 84 66 23 9 568 12 2218 12 l2187 1 -6 -98z m1420 -3476 c84 -35 102 -112
42 -172 l-34 -34 -2955 0 -2955 0 -31 31 c-59 58 -34 155 45 178 16 5 1301 10
2942 10 2465 1 2918 -1 2946 -13z"/>
<path d="M4155 3913 c-423 -34 -939 -149 -1345 -300 -250 -93 -319 -157 -271
-250 35 -71 21 -68 360 -68 278 0 315 -2 401 -22 285 -65 461 -181 598 -392
73 -114 93 -131 152 -131 48 0 73 17 98 66 15 29 19 130 9 240 l-8 91 88 22
c85 22 235 51 261 51 7 0 12 -12 12 -29 0 -40 34 -79 76 -87 47 -9 99 8 158
50 40 28 53 33 73 25 50 -19 78 -10 159 50 l79 60 6 -32 c13 -73 55 -113 137
-130 l60 -12 -45 -93 c-36 -76 -49 -93 -71 -98 -58 -12 -80 -46 -34 -52 12 -2
22 -5 22 -7 0 -2 -22 -50 -50 -106 -57 -117 -64 -168 -28 -193 58 -41 99 -2
185 174 l68 138 100 6 c175 10 395 14 395 7 0 -3 -21 -17 -48 -31 -39 -21 -47
-30 -50 -57 -3 -27 1 -35 22 -45 28 -12 33 -10 111 37 22 14 69 34 105 46 36
12 74 29 85 39 16 14 47 19 150 25 94 5 138 11 159 23 40 23 42 37 10 59 -23
15 -56 19 -183 23 l-155 5 -82 135 c-46 74 -80 138 -76 141 4 4 63 15 132 25
157 24 681 27 795 6 56 -11 82 -11 135 -1 99 19 104 29 45 85 -67 62 -115 88
-210 113 -250 65 -600 67 -880 6 -38 -9 -81 -18 -95 -21 -25 -5 -27 -1 -74
133 -93 265 -138 322 -201 258 -24 -23 -25 -30 -25 -149 0 -118 -2 -129 -35
-217 -65 -171 -62 -166 -122 -189 -79 -29 -87 -27 -101 25 -9 33 -19 48 -41
60 -45 23 -59 20 -178 -39 -104 -51 -110 -53 -137 -39 -33 17 -63 12 -94 -17
l-23 -22 -21 28 -22 27 -205 -6 c-235 -6 -226 -16 -75 90 183 127 244 199 244
286 0 60 -50 118 -125 146 -86 32 -238 46 -380 34z m335 -173 c25 -14 18 -29
-34 -67 -40 -29 -335 -193 -348 -193 -3 0 -14 52 -24 115 -11 69 -22 114 -28
112 -16 -5 -35 -81 -49 -193 l-12 -99 -85 -47 c-47 -26 -98 -62 -113 -79 -25
-27 -28 -38 -25 -80 1 -27 2 -49 2 -49 -1 0 -26 16 -55 36 -73 49 -219 122
-304 151 -96 33 -274 71 -373 79 -45 4 -82 10 -82 14 0 7 343 116 470 150 360
96 585 143 755 160 97 10 279 4 305 -10z m1086 -219 l20 -69 -50 -21 c-27 -11
-52 -19 -54 -16 -3 2 0 17 6 32 6 15 18 54 27 86 8 31 19 57 23 57 5 0 17 -31
28 -69z m160 -343 c31 -46 72 -102 91 -125 33 -42 34 -43 11 -43 -42 0 -350
-30 -420 -41 -38 -6 -72 -9 -74 -6 -3 2 9 37 25 78 16 41 33 86 36 101 6 22
17 30 58 44 29 10 88 30 132 45 44 16 81 29 82 29 1 0 27 -37 59 -82z m-1726
-160 c0 -38 -3 -68 -8 -68 -4 0 -38 31 -75 68 l-68 69 75 -1 76 -1 0 -67z"/>
<path d="M6648 3065 c-14 -31 1 -70 29 -77 49 -13 87 36 63 81 -17 32 -77 29
-92 -4z"/>
<path d="M5290 8889 c-89 -40 -137 -109 -148 -211 l-7 -61 -95 -38 c-52 -21
-99 -39 -104 -39 -6 0 -21 11 -35 24 -50 46 -101 66 -171 66 -91 -1 -133 -23
-245 -131 -122 -118 -161 -188 -152 -277 5 -66 23 -105 68 -156 l30 -35 -39
-98 -39 -98 -64 -11 c-97 -16 -155 -53 -197 -124 -26 -44 -27 -50 -29 -225 -2
-205 5 -233 74 -302 43 -43 73 -53 162 -53 l56 0 30 -82 c17 -44 34 -91 39
-104 8 -19 3 -30 -27 -63 -68 -76 -82 -182 -34 -276 28 -56 188 -217 250 -251
94 -52 203 -37 296 42 17 14 37 24 44 20 6 -3 50 -21 97 -39 l84 -35 12 -71
c18 -105 58 -161 144 -200 39 -18 66 -21 206 -21 178 0 206 6 269 62 48 41 75
97 83 170 l7 60 70 25 c39 14 79 32 90 39 29 20 49 17 76 -12 60 -64 161 -88
250 -59 46 15 71 35 175 139 130 131 144 156 144 252 0 57 -25 116 -68 165
l-31 35 41 101 41 101 57 5 c100 9 174 60 214 147 28 61 36 291 12 372 -29
102 -114 171 -227 184 l-56 6 -41 101 -42 100 32 35 c71 82 88 184 44 278 -19
41 -46 70 -127 138 -134 112 -200 156 -236 156 -54 0 -134 -31 -174 -67 -44
-39 -36 -40 -159 11 l-85 35 -11 64 c-20 107 -62 165 -148 206 -41 19 -63 21
-203 21 -137 0 -164 -3 -203 -21z m314 -205 c13 -5 16 -23 16 -88 0 -57 5 -91
18 -116 16 -32 26 -38 137 -76 67 -22 155 -59 197 -82 41 -23 89 -42 105 -42
33 0 88 36 142 94 19 20 40 36 45 36 17 0 166 -153 166 -170 0 -9 -25 -40 -55
-70 -34 -33 -60 -70 -67 -92 -10 -35 -8 -43 39 -135 28 -54 63 -136 77 -181
14 -46 31 -92 36 -103 21 -39 60 -54 154 -59 l91 -5 3 -114 c2 -75 -1 -118 -9
-127 -8 -10 -37 -14 -101 -14 -85 0 -91 -2 -117 -28 -17 -16 -35 -52 -46 -87
-24 -85 -64 -183 -93 -229 -56 -91 -50 -134 33 -216 30 -30 55 -61 55 -69 0
-19 -150 -171 -168 -171 -8 0 -41 27 -74 60 -86 85 -104 86 -228 22 -54 -28
-138 -63 -186 -77 -67 -19 -96 -33 -116 -55 -26 -28 -28 -36 -28 -119 0 -63
-4 -92 -14 -100 -9 -8 -52 -11 -127 -9 l-114 3 -5 95 c-8 136 -18 148 -155
186 -33 9 -111 41 -173 72 -106 52 -115 54 -150 44 -22 -7 -59 -33 -92 -67
-30 -30 -61 -55 -69 -55 -18 0 -171 149 -171 167 0 6 27 39 60 73 86 87 89
119 26 228 -20 33 -52 109 -72 168 -20 59 -41 115 -47 125 -18 29 -54 39 -137
39 -106 0 -110 4 -110 130 0 54 3 105 6 114 5 13 22 16 85 16 135 0 156 17
199 160 12 41 36 102 52 135 17 33 40 77 50 99 30 59 18 97 -53 171 -32 34
-59 68 -59 76 0 16 149 169 165 169 6 0 33 -23 60 -51 94 -95 124 -99 256 -30
52 27 133 61 181 76 121 36 138 57 138 170 0 112 3 115 130 115 54 0 105 -3
114 -6z"/>
<path d="M5345 8180 c-113 -23 -181 -78 -171 -139 13 -84 44 -95 168 -61 123
34 234 23 362 -36 49 -22 61 -24 85 -14 52 21 69 114 31 163 -21 26 -118 68
-200 86 -53 12 -217 12 -275 1z"/>
<path d="M5512 7890 c-12 -11 -26 -37 -31 -58 -36 -139 -161 -673 -161 -690 0
-35 42 -75 79 -75 66 0 72 14 165 406 47 197 82 366 79 375 -21 59 -89 81
-131 42z"/>
<path d="M4988 7839 c-10 -5 -73 -72 -142 -148 -131 -146 -154 -188 -136 -236
10 -25 201 -251 257 -302 44 -41 113 -27 132 27 15 45 3 67 -96 178 -47 53
-93 105 -101 114 -13 15 -4 28 84 128 55 61 105 124 111 140 29 67 -47 136
-109 99z"/>
<path d="M5885 7825 c-17 -16 -25 -35 -25 -58 0 -28 16 -51 105 -151 58 -64
105 -122 105 -128 0 -6 -30 -44 -67 -86 -155 -172 -165 -191 -122 -246 16 -20
29 -26 58 -26 33 0 45 7 87 53 104 111 199 219 216 245 23 35 23 79 -1 117
-19 32 -206 244 -247 283 -33 30 -78 29 -109 -3z"/>
<path d="M5148 7053 c-49 -31 -62 -92 -29 -135 73 -92 324 -142 512 -103 128
27 170 68 149 145 -20 73 -63 95 -133 65 -105 -44 -254 -38 -381 15 -82 35
-82 35 -118 13z"/>
<path d="M7834 7921 c-26 -12 -46 -16 -55 -10 -27 17 -77 10 -93 -13 -18 -25
-21 -74 -6 -83 6 -3 10 -17 10 -29 0 -13 9 -35 21 -50 31 -40 80 -33 138 18
16 14 25 17 28 9 9 -25 46 -65 69 -73 28 -11 80 4 111 32 17 16 25 18 41 9 26
-14 65 -14 96 0 19 9 29 8 47 -5 33 -22 67 -20 118 9 39 23 47 24 77 13 46
-16 106 2 123 39 17 36 -2 78 -40 92 -16 5 -29 8 -29 6 0 -2 -19 3 -42 11 -33
11 -49 12 -77 3 -20 -6 -40 -15 -44 -19 -5 -4 -25 1 -45 11 -44 23 -64 24
-103 3 -28 -14 -34 -14 -64 0 -26 13 -39 14 -66 4 -19 -6 -40 -15 -47 -21 -9
-7 -17 -4 -28 11 -16 23 -64 52 -86 52 -7 0 -32 -9 -54 -19z"/>
<path d="M8854 7920 c-72 -29 -87 -150 -18 -150 14 0 39 -7 56 -16 24 -12 45
-15 86 -10 44 5 66 2 107 -15 61 -25 89 -21 134 17 34 29 42 75 17 109 -16 22
-92 36 -206 40 -43 1 -91 9 -112 19 -21 9 -39 16 -40 15 -2 0 -13 -4 -24 -9z"/>
<path d="M7388 7181 c-25 -10 -60 -28 -76 -39 -29 -21 -29 -21 -47 -2 -23 25
-86 45 -118 36 -43 -10 -88 -57 -118 -121 -34 -71 -37 -110 -9 -125 27 -15 66
7 109 60 l34 43 33 -40 c23 -28 47 -44 77 -53 48 -13 69 -6 130 43 l29 22 21
-27 c25 -31 83 -58 124 -58 15 0 48 9 72 20 24 11 62 23 85 27 80 12 129 69
104 121 -25 52 -164 80 -230 46 -29 -15 -31 -15 -57 10 -24 23 -89 57 -108 56
-4 -1 -29 -9 -55 -19z"/>
<path d="M8495 7186 c-16 -7 -52 -30 -78 -50 l-49 -37 -39 15 c-64 26 -144 31
-173 12 -34 -22 -58 -70 -54 -108 4 -43 34 -52 85 -26 l41 21 70 -33 c64 -29
73 -31 106 -20 20 6 55 27 77 46 73 61 76 61 121 15 49 -49 94 -61 145 -37 54
26 113 30 148 12 49 -26 104 -20 165 17 30 17 61 44 70 60 13 24 13 30 0 55
-13 22 -24 28 -60 30 -28 2 -55 -3 -76 -14 -32 -17 -35 -17 -83 0 -53 19 -99
16 -172 -9 -35 -13 -38 -12 -61 12 -45 50 -121 66 -183 39z"/>
<path d="M9332 7094 c-42 -29 -17 -104 35 -104 20 0 53 38 53 60 0 22 -33 60
-53 60 -7 0 -23 -7 -35 -16z"/>
<path d="M5294 5930 c-139 -32 -167 -215 -45 -297 108 -73 258 42 230 176 -17
83 -104 140 -185 121z"/>
</g>
</svg>
